<?xml version="1.0" encoding="UTF-8" ?>
<!DOCTYPE svg PUBLIC "-//W3C//DTD SVG 1.1//EN" "http://www.w3.org/Graphics/SVG/1.1/DTD/svg11.dtd">
<svg width="200pt" height="200pt" viewBox="0 0 200 200" version="1.1" xmlns="http://www.w3.org/2000/svg">
<path fill="#abacac" d=" M 104.07 8.01 C 103.76 5.86 107.83 7.47 109.28 7.12 C 108.74 10.76 106.29 9.48 104.07 8.01 Z" />
<path fill="#939596" d=" M 109.28 7.12 C 111.03 7.17 113.56 8.19 114.08 9.93 C 114.06 11.58 114.04 13.23 113.88 14.88 C 111.48 14.98 106.67 15.17 104.27 15.27 C 101.59 17.93 98.38 20.30 96.78 23.82 C 95.73 24.65 94.66 25.46 93.52 26.17 C 93.06 25.63 92.14 24.56 91.67 24.02 C 96.42 22.87 98.79 17.92 101.03 14.00 C 102.57 12.33 102.24 8.75 104.07 8.01 C 106.29 9.48 108.74 10.76 109.28 7.12 Z" />
<path fill="#a2a4a5" d=" M 114.08 9.93 C 115.06 10.80 116.84 11.44 116.89 12.90 C 115.48 15.14 116.26 17.34 118.23 18.90 C 118.07 21.02 117.79 23.20 116.42 24.91 C 114.07 23.00 112.54 24.74 112.29 27.22 C 112.33 24.28 111.89 21.29 109.15 19.66 C 104.82 16.70 101.69 21.04 99.93 24.24 C 99.15 24.13 97.57 23.92 96.78 23.82 C 98.38 20.30 101.59 17.93 104.27 15.27 C 106.67 15.17 111.48 14.98 113.88 14.88 C 114.04 13.23 114.06 11.58 114.08 9.93 Z" />
<path fill="#d0d0d0" d=" M 82.00 12.02 C 87.66 12.00 93.33 11.84 98.99 12.04 L 98.99 13.02 C 93.33 13.00 87.67 13.04 82.00 12.98 L 82.00 12.02 Z" />
<path fill="#b0abab" d=" M 58.34 15.48 C 66.28 15.09 74.00 12.55 82.00 12.98 C 87.67 13.04 93.33 13.00 98.99 13.02 L 99.07 14.00 L 98.14 14.05 C 93.49 14.07 88.85 13.93 84.22 14.19 C 80.97 14.17 77.61 13.49 74.54 14.82 C 64.74 16.22 54.91 17.46 45.82 21.70 C 37.90 24.33 30.50 28.20 23.30 32.38 C 19.68 36.55 16.95 41.40 14.05 46.07 C 17.30 51.00 20.70 55.92 24.86 60.13 C 37.43 71.41 49.95 82.73 62.27 94.30 C 66.93 98.78 71.70 103.21 76.83 107.17 C 81.39 112.36 86.71 116.77 92.01 121.17 C 96.42 117.16 100.56 112.86 105.22 109.14 C 107.75 106.80 110.12 104.27 112.75 102.03 C 114.43 100.98 115.91 99.64 117.23 98.16 C 131.14 85.39 145.04 72.58 159.20 60.10 C 161.22 58.57 162.87 56.60 163.86 54.26 C 165.55 51.51 167.68 49.01 168.96 46.03 C 166.62 42.40 164.52 38.56 161.77 35.23 C 158.73 33.18 155.60 31.23 152.28 29.68 C 143.46 24.65 134.07 20.12 124.03 18.19 C 122.07 17.10 123.90 21.66 122.19 20.58 C 120.86 20.02 119.56 19.44 118.23 18.90 C 116.26 17.34 115.48 15.14 116.89 12.90 C 119.27 12.61 120.05 15.41 122.07 15.92 C 136.37 18.73 149.41 25.80 161.82 33.19 C 165.44 37.00 168.65 41.31 171.02 46.00 C 167.56 51.98 163.90 58.06 158.81 62.81 C 137.58 81.56 117.05 101.07 95.95 119.96 C 94.12 121.06 92.74 123.81 90.22 122.85 C 75.16 107.49 58.59 93.78 43.00 79.00 C 32.51 68.53 18.97 60.04 12.98 46.00 C 14.33 40.58 18.62 36.21 21.37 31.34 C 29.01 28.07 35.68 22.75 43.78 20.57 C 48.73 19.15 53.33 16.72 58.34 15.48 Z" />
<path fill="#a1797b" d=" M 74.54 14.82 C 77.61 13.49 80.97 14.17 84.22 14.19 C 81.01 14.75 77.78 15.10 74.54 14.82 Z" />
<path fill="#8a272b" d=" M 84.22 14.19 C 88.85 13.93 93.49 14.07 98.14 14.05 C 96.75 15.71 95.45 17.45 94.04 19.09 C 89.43 19.86 84.78 18.67 80.17 19.27 C 77.69 18.66 75.18 17.56 74.54 14.82 C 77.78 15.10 81.01 14.75 84.22 14.19 Z" />
<path fill="#c6c4c5" d=" M 98.14 14.05 L 99.07 14.00 C 99.56 14.00 100.54 14.00 101.03 14.00 C 98.79 17.92 96.42 22.87 91.67 24.02 C 91.42 23.73 90.90 23.16 90.65 22.88 C 91.68 21.53 92.92 20.37 94.04 19.09 C 95.45 17.45 96.75 15.71 98.14 14.05 Z" />
<path fill="#a22c31" d=" M 45.82 21.70 C 54.91 17.46 64.74 16.22 74.54 14.82 C 75.18 17.56 77.69 18.66 80.17 19.27 C 79.58 19.53 78.41 20.05 77.83 20.31 C 77.44 20.27 76.65 20.18 76.26 20.13 C 72.12 17.82 66.78 15.44 62.58 18.98 C 61.13 20.20 60.79 22.22 59.92 23.83 C 58.57 24.09 57.21 24.33 55.91 24.78 C 53.87 25.30 51.85 25.88 49.80 26.33 C 49.32 26.04 48.36 25.45 47.88 25.15 C 50.54 23.65 47.09 22.54 45.82 21.70 Z" />
<path fill="#baaaa1" d=" M 62.58 18.98 C 66.78 15.44 72.12 17.82 76.26 20.13 C 74.07 23.83 69.75 18.79 66.99 19.98 C 65.76 22.03 63.97 19.58 62.58 18.98 Z" />
<path fill="#9b999b" d=" M 122.19 20.58 C 123.90 21.66 122.07 17.10 124.03 18.19 C 124.01 20.03 123.99 21.87 123.95 23.71 C 123.26 24.72 122.59 25.74 121.91 26.75 C 119.80 26.65 118.41 27.82 117.69 29.73 L 117.09 30.08 C 116.23 30.52 115.46 31.08 114.78 31.76 C 112.56 34.12 110.86 36.96 109.71 39.99 C 109.19 39.25 108.67 38.51 108.16 37.77 C 109.53 32.72 113.80 29.30 116.42 24.91 C 117.79 23.20 118.07 21.02 118.23 18.90 C 119.56 19.44 120.86 20.02 122.19 20.58 Z" />
<path fill="#682325" d=" M 124.03 18.19 C 134.07 20.12 143.46 24.65 152.28 29.68 C 151.28 30.58 150.31 31.52 149.22 32.31 C 145.80 31.84 142.45 31.01 139.14 30.06 C 135.27 26.11 129.22 24.84 123.95 23.71 C 123.99 21.87 124.01 20.03 124.03 18.19 Z" />
<path fill="#a79a90" d=" M 59.92 23.83 C 60.79 22.22 61.13 20.20 62.58 18.98 C 63.97 19.58 65.76 22.03 66.99 19.98 C 69.75 18.79 74.07 23.83 76.26 20.13 C 76.65 20.18 77.44 20.27 77.83 20.31 C 80.99 22.19 84.44 23.56 88.04 24.31 C 88.30 25.47 88.61 26.61 88.76 27.79 C 85.01 28.82 81.08 27.02 77.02 26.97 C 78.86 32.25 80.88 37.48 82.29 42.90 C 84.57 43.32 84.94 40.43 86.26 39.17 C 87.86 39.38 89.40 39.86 90.97 40.20 C 91.04 40.71 91.19 41.73 91.27 42.23 C 88.73 44.27 86.04 46.16 83.21 47.77 C 80.37 44.64 75.35 45.91 71.73 44.82 C 70.59 41.63 71.97 38.45 71.83 35.25 C 70.13 33.12 66.66 32.20 66.96 28.97 C 67.01 26.89 65.54 29.90 64.86 30.12 C 62.40 29.96 60.34 27.34 57.87 28.83 C 58.50 27.14 59.21 25.49 59.92 23.83 Z" />
<path fill="#904a43" d=" M 80.17 19.27 C 84.78 18.67 89.43 19.86 94.04 19.09 C 92.92 20.37 91.68 21.53 90.65 22.88 C 89.79 23.38 88.92 23.86 88.04 24.31 C 84.44 23.56 80.99 22.19 77.83 20.31 C 78.41 20.05 79.58 19.53 80.17 19.27 Z" />
<path fill="#878889" d=" M 99.93 24.24 C 101.69 21.04 104.82 16.70 109.15 19.66 C 106.10 22.55 105.29 26.68 103.79 30.41 C 100.98 29.81 100.22 26.69 99.93 24.24 Z" />
<path fill="#5b5b5b" d=" M 103.79 30.41 C 105.29 26.68 106.10 22.55 109.15 19.66 C 107.24 23.10 107.56 28.67 103.79 30.41 Z" />
<path fill="#828284" d=" M 109.15 19.66 C 111.89 21.29 112.33 24.28 112.29 27.22 C 111.57 30.78 106.66 31.69 103.79 30.41 C 107.56 28.67 107.24 23.10 109.15 19.66 Z" />
<path fill="#b81d20" d=" M 23.30 32.38 C 30.50 28.20 37.90 24.33 45.82 21.70 C 47.09 22.54 50.54 23.65 47.88 25.15 C 47.27 25.96 47.01 26.92 47.11 28.04 C 42.60 30.80 37.10 32.35 33.79 36.76 C 31.88 39.65 30.44 42.84 29.08 46.02 C 30.87 49.36 32.72 52.96 36.11 54.94 C 32.93 55.71 34.43 58.86 35.01 61.06 C 31.42 61.50 28.42 58.61 24.86 60.13 C 20.70 55.92 17.30 51.00 14.05 46.07 C 16.95 41.40 19.68 36.55 23.30 32.38 Z" />
<path fill="#e9f1f5" d=" M 88.04 24.31 C 88.92 23.86 89.79 23.38 90.65 22.88 C 90.90 23.16 91.42 23.73 91.67 24.02 C 92.14 24.56 93.06 25.63 93.52 26.17 L 92.99 26.55 C 91.86 27.20 90.76 27.90 89.68 28.64 L 88.88 28.66 L 88.76 27.79 C 88.61 26.61 88.30 25.47 88.04 24.31 Z" />
<path fill="#964a43" d=" M 55.91 24.78 C 57.21 24.33 58.57 24.09 59.92 23.83 C 59.21 25.49 58.50 27.14 57.87 28.83 C 57.16 30.56 56.49 32.30 55.93 34.08 C 51.66 35.93 45.85 35.08 42.47 38.72 C 41.07 35.20 38.46 37.51 36.04 38.63 C 35.17 38.18 34.42 37.56 33.79 36.76 C 37.10 32.35 42.60 30.80 47.11 28.04 C 48.78 30.49 50.95 32.83 54.09 33.08 C 53.79 31.22 52.77 29.61 51.84 28.02 C 53.21 26.96 54.62 25.94 55.91 24.78 Z" />
<path fill="#bcb7bb" d=" M 93.52 26.17 C 94.66 25.46 95.73 24.65 96.78 23.82 C 97.57 23.92 99.15 24.13 99.93 24.24 C 100.22 26.69 100.98 29.81 103.79 30.41 C 106.66 31.69 111.57 30.78 112.29 27.22 C 112.54 24.74 114.07 23.00 116.42 24.91 C 113.80 29.30 109.53 32.72 108.16 37.77 L 107.48 37.86 C 106.05 36.91 104.39 37.27 102.87 37.74 C 101.38 36.13 100.95 34.02 100.71 31.90 C 99.82 33.14 99.85 35.69 98.12 35.89 C 95.35 33.39 93.22 30.37 92.99 26.55 L 93.52 26.17 Z" />
<path fill="#974743" d=" M 121.91 26.75 C 122.59 25.74 123.26 24.72 123.95 23.71 C 129.22 24.84 135.27 26.11 139.14 30.06 C 136.16 29.77 133.24 29.13 130.29 28.69 C 128.23 28.07 126.18 27.45 124.06 27.09 C 123.52 27.00 122.44 26.83 121.91 26.75 Z" />
<path fill="#ddd8d9" d=" M 47.11 28.04 C 47.01 26.92 47.27 25.96 47.88 25.15 C 48.36 25.45 49.32 26.04 49.80 26.33 C 50.48 26.89 51.15 27.46 51.84 28.02 C 52.77 29.61 53.79 31.22 54.09 33.08 C 50.95 32.83 48.78 30.49 47.11 28.04 Z" />
<path fill="#be6969" d=" M 49.80 26.33 C 51.85 25.88 53.87 25.30 55.91 24.78 C 54.62 25.94 53.21 26.96 51.84 28.02 C 51.15 27.46 50.48 26.89 49.80 26.33 Z" />
<path fill="#ada39b" d=" M 77.02 26.97 C 81.08 27.02 85.01 28.82 88.76 27.79 L 88.88 28.66 C 88.28 31.14 86.85 34.22 89.96 35.04 C 91.45 35.91 93.21 35.96 94.88 36.19 C 95.67 36.79 96.44 37.42 97.19 38.07 C 95.00 38.83 92.09 37.55 90.97 40.20 C 89.40 39.86 87.86 39.38 86.26 39.17 C 84.94 40.43 84.57 43.32 82.29 42.90 C 80.88 37.48 78.86 32.25 77.02 26.97 Z" />
<path fill="#959599" d=" M 89.68 28.64 C 90.76 27.90 91.86 27.20 92.99 26.55 C 93.22 30.37 95.35 33.39 98.12 35.89 C 97.31 35.97 95.69 36.12 94.88 36.19 C 93.21 35.96 91.45 35.91 89.96 35.04 C 90.76 33.82 91.59 32.62 92.22 31.30 C 91.16 31.53 90.09 31.74 89.01 31.93 C 89.20 30.83 89.42 29.73 89.68 28.64 Z" />
<path fill="#665497" d=" M 117.69 29.73 C 118.41 27.82 119.80 26.65 121.91 26.75 C 122.44 26.83 123.52 27.00 124.06 27.09 C 123.86 27.60 123.46 28.62 123.26 29.13 C 122.12 27.59 119.61 30.68 117.69 29.73 Z" />
<path fill="#2e2b78" d=" M 124.06 27.09 C 126.18 27.45 128.23 28.07 130.29 28.69 C 128.60 29.86 126.80 30.85 124.94 31.73 C 126.33 32.10 127.95 31.97 129.15 32.86 C 128.85 33.05 128.26 33.42 127.96 33.61 C 126.63 33.42 125.29 33.27 123.96 33.18 C 122.90 32.05 123.16 30.53 123.26 29.13 C 123.46 28.62 123.86 27.60 124.06 27.09 Z" />
<path fill="#b6ae9a" d=" M 57.87 28.83 C 60.34 27.34 62.40 29.96 64.86 30.12 C 63.54 30.91 63.29 32.02 64.10 33.35 C 63.88 33.43 63.44 33.60 63.22 33.68 C 60.83 32.61 58.33 33.67 55.93 34.08 C 56.49 32.30 57.16 30.56 57.87 28.83 Z" />
<path fill="#e7e5e6" d=" M 64.86 30.12 C 65.54 29.90 67.01 26.89 66.96 28.97 C 66.66 32.20 70.13 33.12 71.83 35.25 C 71.97 38.45 70.59 41.63 71.73 44.82 C 68.75 47.27 71.15 51.54 70.96 54.88 C 63.72 55.84 56.36 57.30 49.66 60.27 C 45.67 58.74 41.03 57.59 38.25 54.09 C 38.02 52.72 37.77 51.36 37.51 49.99 C 39.08 48.91 40.92 50.77 42.63 50.84 C 43.06 49.85 43.50 48.88 43.94 47.90 C 45.75 48.15 47.59 47.94 48.01 45.85 C 47.97 45.44 47.90 44.62 47.87 44.22 C 47.22 43.23 46.48 42.31 45.92 41.27 C 49.94 40.63 53.87 39.53 57.88 38.90 C 56.08 40.86 56.21 43.10 58.18 44.92 C 62.66 46.18 63.12 39.03 58.99 38.18 C 61.85 37.15 67.08 38.41 67.47 34.38 C 68.74 32.15 65.31 33.68 64.10 33.35 C 63.29 32.02 63.54 30.91 64.86 30.12 Z" />
<path fill="#eee9f2" d=" M 117.69 29.73 C 119.61 30.68 122.12 27.59 123.26 29.13 C 123.16 30.53 122.90 32.05 123.96 33.18 C 124.49 36.07 120.87 34.66 119.17 35.08 L 118.20 35.01 C 117.95 33.34 117.64 31.68 117.09 30.08 L 117.69 29.73 Z" />
<path fill="#c3c4c4" d=" M 89.96 35.04 C 86.85 34.22 88.28 31.14 88.88 28.66 L 89.68 28.64 C 89.42 29.73 89.20 30.83 89.01 31.93 C 90.09 31.74 91.16 31.53 92.22 31.30 C 91.59 32.62 90.76 33.82 89.96 35.04 Z" />
<path fill="#0b1059" d=" M 124.94 31.73 C 126.80 30.85 128.60 29.86 130.29 28.69 C 133.24 29.13 136.16 29.77 139.14 30.06 C 142.45 31.01 145.80 31.84 149.22 32.31 L 149.37 33.00 C 148.98 34.43 148.50 35.83 147.96 37.20 C 142.94 36.17 137.87 35.23 132.71 35.27 C 131.49 34.52 130.34 33.66 129.15 32.86 C 127.95 31.97 126.33 32.10 124.94 31.73 Z" />
<path fill="#57408d" d=" M 114.78 31.76 C 115.46 31.08 116.23 30.52 117.09 30.08 C 117.64 31.68 117.95 33.34 118.20 35.01 C 115.59 35.84 117.33 32.85 115.19 32.65 L 114.78 31.76 Z" />
<path fill="#592327" d=" M 149.22 32.31 C 150.31 31.52 151.28 30.58 152.28 29.68 C 155.60 31.23 158.73 33.18 161.77 35.23 C 164.52 38.56 166.62 42.40 168.96 46.03 C 167.68 49.01 165.55 51.51 163.86 54.26 C 163.53 53.83 162.87 52.98 162.55 52.55 C 163.45 48.31 159.75 46.80 157.32 44.67 C 156.68 42.83 155.41 39.14 154.77 37.30 C 154.32 37.25 153.42 37.14 152.97 37.09 C 150.06 37.66 149.78 35.22 149.37 33.00 L 149.22 32.31 Z" />
<path fill="#f9f0f5" d=" M 98.12 35.89 C 99.85 35.69 99.82 33.14 100.71 31.90 C 100.95 34.02 101.38 36.13 102.87 37.74 C 101.90 38.69 100.95 39.66 100.02 40.66 C 99.42 40.19 98.86 39.68 98.33 39.14 C 98.04 38.87 97.47 38.34 97.19 38.07 C 96.44 37.42 95.67 36.79 94.88 36.19 C 95.69 36.12 97.31 35.97 98.12 35.89 Z" />
<path fill="#b4b4ba" d=" M 109.71 39.99 C 110.86 36.96 112.56 34.12 114.78 31.76 L 115.19 32.65 C 114.92 34.00 114.61 35.35 114.21 36.67 C 112.70 37.92 111.06 39.19 110.51 41.17 C 110.31 40.88 109.91 40.28 109.71 39.99 Z" />
<path fill="#ebe3e6" d=" M 55.93 34.08 C 58.33 33.67 60.83 32.61 63.22 33.68 C 56.59 37.64 48.81 39.14 41.27 40.30 C 38.73 41.31 40.86 44.27 41.13 46.11 C 39.71 46.53 38.28 46.91 36.84 47.23 C 34.10 44.35 40.26 39.67 36.04 38.63 C 38.46 37.51 41.07 35.20 42.47 38.72 C 45.85 35.08 51.66 35.93 55.93 34.08 Z" />
<path fill="#cec7c0" d=" M 64.10 33.35 C 65.31 33.68 68.74 32.15 67.47 34.38 C 67.08 38.41 61.85 37.15 58.99 38.18 C 63.12 39.03 62.66 46.18 58.18 44.92 C 56.21 43.10 56.08 40.86 57.88 38.90 C 53.87 39.53 49.94 40.63 45.92 41.27 C 46.48 42.31 47.22 43.23 47.87 44.22 C 46.07 43.79 44.49 45.05 42.94 45.74 C 42.49 45.84 41.58 46.02 41.13 46.11 C 40.86 44.27 38.73 41.31 41.27 40.30 C 48.81 39.14 56.59 37.64 63.22 33.68 C 63.44 33.60 63.88 33.43 64.10 33.35 Z" />
<path fill="#8888d4" d=" M 115.19 32.65 C 117.33 32.85 115.59 35.84 118.20 35.01 L 119.17 35.08 C 120.01 37.08 119.22 39.16 118.97 41.19 C 117.36 39.71 115.92 38.04 114.21 36.67 C 114.61 35.35 114.92 34.00 115.19 32.65 Z" />
<path fill="#11185a" d=" M 123.96 33.18 C 125.29 33.27 126.63 33.42 127.96 33.61 C 132.56 38.80 139.19 42.70 141.90 49.25 C 141.89 51.28 143.64 53.93 141.30 55.22 C 137.55 57.11 132.40 54.98 128.78 57.75 C 125.18 57.31 121.57 56.80 118.11 55.69 L 117.71 54.91 L 117.74 53.99 L 117.78 53.20 C 118.66 51.84 120.18 50.81 120.65 49.25 C 119.75 48.12 118.77 47.06 117.86 45.94 C 118.33 44.38 118.79 42.81 118.97 41.19 C 119.22 39.16 120.01 37.08 119.17 35.08 C 120.87 34.66 124.49 36.07 123.96 33.18 Z" />
<path fill="#b6bae0" d=" M 127.96 33.61 C 128.26 33.42 128.85 33.05 129.15 32.86 C 130.34 33.66 131.49 34.52 132.71 35.27 C 137.19 39.28 141.72 43.31 146.96 46.32 L 146.78 47.11 C 145.47 47.78 144.15 48.44 142.83 49.09 L 141.90 49.25 C 139.19 42.70 132.56 38.80 127.96 33.61 Z" />
<path fill="#6e72b2" d=" M 149.37 33.00 C 149.78 35.22 150.06 37.66 152.97 37.09 L 152.96 38.13 C 151.28 37.92 149.60 37.64 147.96 37.20 C 148.50 35.83 148.98 34.43 149.37 33.00 Z" />
<path fill="#162573" d=" M 132.71 35.27 C 137.87 35.23 142.94 36.17 147.96 37.20 C 149.60 37.64 151.28 37.92 152.96 38.13 C 153.00 39.59 153.04 41.06 153.11 42.52 C 152.80 43.12 152.18 44.31 151.87 44.90 C 150.24 45.41 148.61 45.90 146.96 46.32 C 141.72 43.31 137.19 39.28 132.71 35.27 Z" />
<path fill="#711a1e" d=" M 29.08 46.02 C 30.44 42.84 31.88 39.65 33.79 36.76 C 34.42 37.56 35.17 38.18 36.04 38.63 C 40.26 39.67 34.10 44.35 36.84 47.23 C 37.05 48.16 37.28 49.07 37.51 49.99 C 37.77 51.36 38.02 52.72 38.25 54.09 C 37.72 54.30 36.65 54.72 36.11 54.94 C 32.72 52.96 30.87 49.36 29.08 46.02 Z" />
<path fill="#cc7289" d=" M 102.87 37.74 C 104.39 37.27 106.05 36.91 107.48 37.86 C 106.35 38.92 105.16 39.90 103.93 40.83 C 103.48 41.10 102.56 41.62 102.10 41.88 C 101.58 41.58 100.54 40.97 100.02 40.66 C 100.95 39.66 101.90 38.69 102.87 37.74 Z" />
<path fill="#865e55" d=" M 110.51 41.17 C 111.06 39.19 112.70 37.92 114.21 36.67 C 113.69 39.16 113.08 41.64 112.71 44.16 L 111.97 43.91 C 111.48 43.00 110.99 42.09 110.51 41.17 Z" />
<path fill="#1d2a74" d=" M 114.21 36.67 C 115.92 38.04 117.36 39.71 118.97 41.19 C 118.79 42.81 118.33 44.38 117.86 45.94 C 116.88 46.72 115.91 47.52 114.91 48.27 C 114.10 46.94 113.36 45.57 112.71 44.16 C 113.08 41.64 113.69 39.16 114.21 36.67 Z" />
<path fill="#682429" d=" M 152.97 37.09 C 153.42 37.14 154.32 37.25 154.77 37.30 C 155.41 39.14 156.68 42.83 157.32 44.67 C 159.75 46.80 163.45 48.31 162.55 52.55 C 162.87 52.98 163.53 53.83 163.86 54.26 C 162.87 56.60 161.22 58.57 159.20 60.10 C 154.84 60.62 151.06 63.83 146.47 62.75 C 145.42 60.95 144.51 59.03 142.94 57.60 C 146.94 55.41 152.48 53.90 151.92 47.99 C 154.55 47.25 154.28 44.45 153.11 42.52 C 153.04 41.06 153.00 39.59 152.96 38.13 L 152.97 37.09 Z" />
<path fill="#944d5b" d=" M 90.97 40.20 C 92.09 37.55 95.00 38.83 97.19 38.07 C 97.47 38.34 98.04 38.87 98.33 39.14 C 98.04 39.50 97.45 40.22 97.16 40.58 C 95.01 39.93 93.17 41.49 91.27 42.23 C 91.19 41.73 91.04 40.71 90.97 40.20 Z" />
<path fill="#bb1121" d=" M 107.48 37.86 L 108.16 37.77 C 108.67 38.51 109.19 39.25 109.71 39.99 C 109.91 40.28 110.31 40.88 110.51 41.17 C 110.99 42.09 111.48 43.00 111.97 43.91 C 108.76 45.92 105.58 43.69 103.93 40.83 C 105.16 39.90 106.35 38.92 107.48 37.86 Z" />
<path fill="#ca8b8e" d=" M 98.33 39.14 C 98.86 39.68 99.42 40.19 100.02 40.66 C 100.54 40.97 101.58 41.58 102.10 41.88 C 96.22 45.49 90.38 49.18 84.78 53.22 C 84.32 53.48 83.41 54.01 82.95 54.27 C 82.64 53.80 82.02 52.85 81.71 52.37 C 87.12 48.81 92.56 45.19 97.16 40.58 C 97.45 40.22 98.04 39.50 98.33 39.14 Z" />
<path fill="#b01623" d=" M 91.27 42.23 C 93.17 41.49 95.01 39.93 97.16 40.58 C 92.56 45.19 87.12 48.81 81.71 52.37 C 81.04 51.40 80.46 50.38 79.99 49.30 C 81.09 48.83 82.16 48.32 83.21 47.77 C 86.04 46.16 88.73 44.27 91.27 42.23 Z" />
<path fill="#a70f1a" d=" M 102.10 41.88 C 102.56 41.62 103.48 41.10 103.93 40.83 C 105.58 43.69 108.76 45.92 111.97 43.91 L 112.71 44.16 C 113.36 45.57 114.10 46.94 114.91 48.27 C 114.64 48.47 114.11 48.87 113.84 49.07 C 112.91 49.37 111.99 49.70 111.08 50.06 C 110.34 48.78 110.03 46.16 108.18 46.27 C 107.60 48.04 109.38 49.51 110.14 50.95 C 110.84 52.24 111.56 53.53 112.16 54.87 L 111.78 55.79 C 110.57 56.97 109.38 58.16 108.12 59.28 C 107.43 58.72 106.76 58.16 106.09 57.58 C 107.71 54.70 103.43 53.15 101.99 56.04 C 101.29 56.60 100.57 57.13 99.81 57.61 C 94.74 56.39 89.58 55.33 84.78 53.22 C 90.38 49.18 96.22 45.49 102.10 41.88 Z" />
<path fill="#ebd182" d=" M 53.29 42.37 C 55.90 40.67 55.40 45.09 53.80 45.85 C 52.68 45.67 49.53 47.04 49.99 45.01 C 49.27 42.65 51.78 42.90 53.29 42.37 Z" />
<path fill="#934340" d=" M 151.87 44.90 C 152.18 44.31 152.80 43.12 153.11 42.52 C 154.28 44.45 154.55 47.25 151.92 47.99 C 151.91 47.22 151.88 45.67 151.87 44.90 Z" />
<path fill="#cc7a61" d=" M 42.94 45.74 C 44.49 45.05 46.07 43.79 47.87 44.22 C 47.90 44.62 47.97 45.44 48.01 45.85 C 46.36 46.41 44.59 46.11 42.94 45.74 Z" />
<path fill="#f9f7e5" d=" M 70.96 54.88 C 71.15 51.54 68.75 47.27 71.73 44.82 C 72.72 46.00 73.75 47.14 74.84 48.23 C 74.37 50.12 76.01 52.24 77.96 50.95 C 79.60 50.84 78.75 46.10 79.99 49.30 C 80.46 50.38 81.04 51.40 81.71 52.37 C 82.02 52.85 82.64 53.80 82.95 54.27 C 83.12 55.22 83.54 56.19 83.13 57.14 C 81.06 58.70 78.93 60.39 76.16 60.06 C 75.15 59.18 74.24 56.19 72.78 58.10 C 72.15 57.04 71.54 55.97 70.96 54.88 Z" />
<path fill="#b7aba2" d=" M 71.73 44.82 C 75.35 45.91 80.37 44.64 83.21 47.77 C 82.16 48.32 81.09 48.83 79.99 49.30 C 78.75 46.10 79.60 50.84 77.96 50.95 C 78.53 48.95 76.25 48.52 74.84 48.23 C 73.75 47.14 72.72 46.00 71.73 44.82 Z" />
<path fill="#1b2668" d=" M 146.96 46.32 C 148.61 45.90 150.24 45.41 151.87 44.90 C 151.88 45.67 151.91 47.22 151.92 47.99 C 152.48 53.90 146.94 55.41 142.94 57.60 C 141.08 58.45 139.24 59.42 137.23 59.88 C 134.42 59.12 131.65 58.28 128.78 57.75 C 132.40 54.98 137.55 57.11 141.30 55.22 C 143.64 53.93 141.89 51.28 141.90 49.25 L 142.83 49.09 C 143.28 50.62 143.72 52.16 144.16 53.70 C 145.66 52.70 147.25 51.82 148.78 50.84 C 148.15 49.58 147.40 48.37 146.78 47.11 L 146.96 46.32 Z" />
<path fill="#d6d4d4" d=" M 36.84 47.23 C 38.28 46.91 39.71 46.53 41.13 46.11 C 41.58 46.02 42.49 45.84 42.94 45.74 C 43.19 46.28 43.69 47.36 43.94 47.90 C 43.50 48.88 43.06 49.85 42.63 50.84 C 40.92 50.77 39.08 48.91 37.51 49.99 C 37.28 49.07 37.05 48.16 36.84 47.23 Z" />
<path fill="#cea18f" d=" M 42.94 45.74 C 44.59 46.11 46.36 46.41 48.01 45.85 C 47.59 47.94 45.75 48.15 43.94 47.90 C 43.69 47.36 43.19 46.28 42.94 45.74 Z" />
<path fill="#bb5e63" d=" M 108.18 46.27 C 110.03 46.16 110.34 48.78 111.08 50.06 C 110.85 50.28 110.37 50.73 110.14 50.95 C 109.38 49.51 107.60 48.04 108.18 46.27 Z" />
<path fill="#c6edf0" d=" M 114.91 48.27 C 115.91 47.52 116.88 46.72 117.86 45.94 C 118.77 47.06 119.75 48.12 120.65 49.25 C 120.18 50.81 118.66 51.84 117.78 53.20 C 115.71 52.74 114.82 50.72 113.84 49.07 C 114.11 48.87 114.64 48.47 114.91 48.27 Z" />
<path fill="#cfdce7" d=" M 142.83 49.09 C 144.15 48.44 145.47 47.78 146.78 47.11 C 147.40 48.37 148.15 49.58 148.78 50.84 C 147.25 51.82 145.66 52.70 144.16 53.70 C 143.72 52.16 143.28 50.62 142.83 49.09 Z" />
<path fill="#847268" d=" M 74.84 48.23 C 76.25 48.52 78.53 48.95 77.96 50.95 C 76.01 52.24 74.37 50.12 74.84 48.23 Z" />
<path fill="#a3343a" d=" M 111.08 50.06 C 111.99 49.70 112.91 49.37 113.84 49.07 C 114.82 50.72 115.71 52.74 117.78 53.20 L 117.74 53.99 C 116.35 54.28 114.44 56.63 113.59 54.49 C 113.23 54.59 112.52 54.78 112.16 54.87 C 111.56 53.53 110.84 52.24 110.14 50.95 C 110.37 50.73 110.85 50.28 111.08 50.06 Z" />
<path fill="#b7101f" d=" M 82.95 54.27 C 83.41 54.01 84.32 53.48 84.78 53.22 C 89.58 55.33 94.74 56.39 99.81 57.61 C 100.57 57.13 101.29 56.60 101.99 56.04 C 103.25 56.84 104.53 57.66 106.09 57.58 C 106.76 58.16 107.43 58.72 108.12 59.28 C 105.78 61.31 103.27 63.14 100.69 64.84 C 99.42 64.96 98.59 65.87 97.97 66.90 C 92.03 66.97 85.82 67.86 80.25 65.29 C 79.98 64.66 79.42 63.40 79.15 62.77 C 81.18 63.03 83.21 63.34 85.23 63.68 C 84.57 61.35 81.55 59.78 83.13 57.14 C 83.54 56.19 83.12 55.22 82.95 54.27 Z" />
<path fill="#a9252a" d=" M 38.25 54.09 C 41.03 57.59 45.67 58.74 49.66 60.27 C 52.00 61.03 54.39 61.64 56.77 62.27 C 57.05 62.46 57.61 62.86 57.88 63.05 C 59.18 65.82 60.81 68.43 61.93 71.29 C 59.34 71.01 56.73 70.65 54.29 69.69 C 51.39 67.87 50.80 63.76 47.99 61.95 C 45.69 62.98 43.67 64.53 41.65 66.03 C 41.19 63.47 38.92 64.52 37.13 64.92 C 36.52 63.57 35.77 62.31 35.01 61.06 C 34.43 58.86 32.93 55.71 36.11 54.94 C 36.65 54.72 37.72 54.30 38.25 54.09 Z" />
<path fill="#e2a3a7" d=" M 101.99 56.04 C 103.43 53.15 107.71 54.70 106.09 57.58 C 104.53 57.66 103.25 56.84 101.99 56.04 Z" />
<path fill="#cf9593" d=" M 112.16 54.87 C 112.52 54.78 113.23 54.59 113.59 54.49 C 114.44 56.63 116.35 54.28 117.74 53.99 L 117.71 54.91 C 115.33 55.93 116.12 58.40 117.23 60.11 C 116.41 59.38 115.58 58.66 114.76 57.93 C 113.82 57.14 112.76 56.52 111.78 55.79 L 112.16 54.87 Z" />
<path fill="#d4d1d1" d=" M 49.66 60.27 C 56.36 57.30 63.72 55.84 70.96 54.88 C 71.54 55.97 72.15 57.04 72.78 58.10 C 70.52 59.78 67.58 60.02 64.95 60.85 C 62.21 61.22 59.51 61.88 56.77 62.27 C 54.39 61.64 52.00 61.03 49.66 60.27 Z" />
<path fill="#ac6752" d=" M 117.23 60.11 C 116.12 58.40 115.33 55.93 117.71 54.91 L 118.11 55.69 C 118.10 57.18 118.27 58.88 117.23 60.11 Z" />
<path fill="#c36c71" d=" M 108.12 59.28 C 109.38 58.16 110.57 56.97 111.78 55.79 C 112.76 56.52 113.82 57.14 114.76 57.93 C 110.55 59.71 107.47 63.41 103.79 66.06 L 103.03 66.43 C 102.45 66.03 101.27 65.24 100.69 64.84 C 103.27 63.14 105.78 61.31 108.12 59.28 Z" />
<path fill="#6b5854" d=" M 118.11 55.69 C 121.57 56.80 125.18 57.31 128.78 57.75 C 131.65 58.28 134.42 59.12 137.23 59.88 C 132.98 61.18 128.61 62.04 124.26 62.95 C 122.50 59.01 118.96 60.67 115.97 62.03 C 116.28 61.55 116.92 60.59 117.23 60.11 C 118.27 58.88 118.10 57.18 118.11 55.69 Z" />
<path fill="#6d5b55" d=" M 72.78 58.10 C 74.24 56.19 75.15 59.18 76.16 60.06 C 76.15 61.37 75.59 64.46 76.99 61.80 C 77.52 60.37 78.48 62.51 79.15 62.77 C 79.42 63.40 79.98 64.66 80.25 65.29 C 75.09 66.09 69.50 66.93 64.74 64.27 C 64.80 63.42 64.90 61.71 64.95 60.85 C 67.58 60.02 70.52 59.78 72.78 58.10 Z" />
<path fill="#c48684" d=" M 76.16 60.06 C 78.93 60.39 81.06 58.70 83.13 57.14 C 81.55 59.78 84.57 61.35 85.23 63.68 C 83.21 63.34 81.18 63.03 79.15 62.77 C 78.48 62.51 77.52 60.37 76.99 61.80 C 75.59 64.46 76.15 61.37 76.16 60.06 Z" />
<path fill="#bb0f20" d=" M 103.79 66.06 C 107.47 63.41 110.55 59.71 114.76 57.93 C 115.58 58.66 116.41 59.38 117.23 60.11 C 116.92 60.59 116.28 61.55 115.97 62.03 C 113.87 63.05 111.83 64.16 109.83 65.36 C 107.85 65.81 105.81 65.95 103.79 66.06 Z" />
<path fill="#7d2627" d=" M 137.23 59.88 C 139.24 59.42 141.08 58.45 142.94 57.60 C 144.51 59.03 145.42 60.95 146.47 62.75 C 151.06 63.83 154.84 60.62 159.20 60.10 C 145.04 72.58 131.14 85.39 117.23 98.16 C 117.12 97.58 116.91 96.43 116.80 95.85 C 118.72 93.61 120.60 91.33 122.61 89.16 C 126.90 88.17 129.34 83.77 132.44 80.88 C 136.94 76.89 139.68 70.67 145.03 67.73 C 149.08 65.87 144.20 62.43 142.90 66.22 C 140.87 66.71 138.85 67.20 136.83 67.68 C 133.78 68.45 130.77 69.32 127.79 70.29 C 125.91 68.22 124.55 65.74 122.85 63.53 C 123.20 63.39 123.91 63.09 124.26 62.95 C 128.61 62.04 132.98 61.18 137.23 59.88 Z" />
<path fill="#b42a2e" d=" M 24.86 60.13 C 28.42 58.61 31.42 61.50 35.01 61.06 C 35.77 62.31 36.52 63.57 37.13 64.92 C 37.70 65.80 37.83 67.16 38.88 67.63 C 40.74 68.59 42.41 69.85 44.18 70.96 C 43.59 69.50 42.77 68.16 42.00 66.81 L 41.65 66.03 C 43.67 64.53 45.69 62.98 47.99 61.95 C 50.80 63.76 51.39 67.87 54.29 69.69 C 56.73 70.65 59.34 71.01 61.93 71.29 C 62.43 72.63 63.20 73.84 64.13 74.93 C 65.35 74.38 66.94 73.95 67.02 72.36 C 70.68 72.80 74.37 73.12 78.04 73.57 C 72.93 75.28 81.08 76.11 83.00 74.29 C 84.30 74.21 85.61 74.16 86.92 74.13 C 88.65 75.40 90.97 76.61 91.08 79.05 C 91.14 80.72 91.26 84.06 91.33 85.73 C 91.10 91.22 90.85 96.74 91.14 102.24 C 91.11 103.62 91.34 105.00 91.79 106.31 C 91.70 107.83 92.92 111.17 90.22 109.77 C 87.53 107.07 85.28 103.98 82.95 100.98 C 79.95 96.39 76.80 91.91 73.49 87.55 C 72.60 86.44 71.95 84.79 70.23 84.97 C 70.08 85.78 69.77 87.38 69.62 88.18 C 68.73 86.58 68.10 84.86 67.59 83.10 C 68.25 82.10 70.72 80.93 69.38 79.60 C 68.31 78.30 67.14 80.24 66.74 81.13 C 64.48 76.08 59.00 81.44 56.65 83.86 C 54.87 86.83 60.15 89.21 62.23 90.98 C 62.48 92.08 62.69 93.21 62.27 94.30 C 49.95 82.73 37.43 71.41 24.86 60.13 Z" />
<path fill="#5e4c4a" d=" M 115.97 62.03 C 118.96 60.67 122.50 59.01 124.26 62.95 C 123.91 63.09 123.20 63.39 122.85 63.53 C 120.45 64.32 118.06 65.16 115.73 66.14 C 114.25 65.94 111.31 65.56 109.83 65.36 C 111.83 64.16 113.87 63.05 115.97 62.03 Z" />
<path fill="#836058" d=" M 56.77 62.27 C 59.51 61.88 62.21 61.22 64.95 60.85 C 64.90 61.71 64.80 63.42 64.74 64.27 C 62.46 63.84 60.19 63.35 57.88 63.05 C 57.61 62.86 57.05 62.46 56.77 62.27 Z" />
<path fill="#912123" d=" M 57.88 63.05 C 60.19 63.35 62.46 63.84 64.74 64.27 C 69.50 66.93 75.09 66.09 80.25 65.29 C 85.82 67.86 92.03 66.97 97.97 66.90 C 99.65 67.10 101.52 67.43 103.03 66.43 L 103.79 66.06 C 102.69 68.82 104.10 71.42 105.12 73.95 C 101.65 73.90 95.98 73.61 101.17 75.48 C 99.51 75.80 97.82 75.88 96.14 75.85 C 94.83 74.59 93.84 72.73 92.08 72.11 C 90.42 72.95 88.83 74.03 86.92 74.13 C 85.61 74.16 84.30 74.21 83.00 74.29 C 81.35 74.02 79.70 73.76 78.04 73.57 C 74.37 73.12 70.68 72.80 67.02 72.36 C 66.57 71.33 66.14 70.31 65.72 69.28 C 64.44 69.92 63.22 70.66 61.93 71.29 C 60.81 68.43 59.18 65.82 57.88 63.05 Z" />
<path fill="#d9878a" d=" M 37.13 64.92 C 38.92 64.52 41.19 63.47 41.65 66.03 L 42.00 66.81 C 40.96 67.06 39.92 67.33 38.88 67.63 C 37.83 67.16 37.70 65.80 37.13 64.92 Z" />
<path fill="#8d282b" d=" M 115.73 66.14 C 118.06 65.16 120.45 64.32 122.85 63.53 C 124.55 65.74 125.91 68.22 127.79 70.29 C 130.55 71.18 137.08 70.33 138.97 68.02 C 138.44 67.94 137.36 67.77 136.83 67.68 C 138.85 67.20 140.87 66.71 142.90 66.22 C 143.61 66.72 144.32 67.23 145.03 67.73 C 139.68 70.67 136.94 76.89 132.44 80.88 C 131.12 79.86 130.20 81.35 129.23 82.08 C 129.94 76.63 122.74 79.63 119.35 78.32 C 118.29 80.23 117.36 82.21 116.17 84.04 C 114.85 85.50 113.85 87.18 112.97 88.93 C 112.02 88.72 110.47 87.39 109.82 88.78 C 107.70 91.65 105.49 94.45 103.23 97.23 C 104.85 93.18 107.47 89.71 109.96 86.18 C 113.02 82.48 116.27 78.90 120.01 75.86 C 121.17 74.83 122.11 73.54 122.90 72.21 C 121.73 71.09 120.46 70.06 119.16 69.10 C 117.95 68.18 116.82 67.18 115.73 66.14 Z" />
<path fill="#d8a0a2" d=" M 142.90 66.22 C 144.20 62.43 149.08 65.87 145.03 67.73 C 144.32 67.23 143.61 66.72 142.90 66.22 Z" />
<path fill="#af4c51" d=" M 97.97 66.90 C 98.59 65.87 99.42 64.96 100.69 64.84 C 101.27 65.24 102.45 66.03 103.03 66.43 C 101.52 67.43 99.65 67.10 97.97 66.90 Z" />
<path fill="#7e1f21" d=" M 103.79 66.06 C 105.81 65.95 107.85 65.81 109.83 65.36 C 111.31 65.56 114.25 65.94 115.73 66.14 C 116.82 67.18 117.95 68.18 119.16 69.10 C 118.94 70.41 118.51 71.72 117.35 72.50 C 118.12 73.71 119.12 74.75 120.01 75.86 C 116.27 78.90 113.02 82.48 109.96 86.18 C 109.20 82.26 113.15 79.05 113.75 75.15 C 112.65 73.56 110.60 72.12 108.96 73.96 C 107.68 73.97 106.40 73.97 105.12 73.95 C 104.10 71.42 102.69 68.82 103.79 66.06 Z" />
<path fill="#c54347" d=" M 38.88 67.63 C 39.92 67.33 40.96 67.06 42.00 66.81 C 42.77 68.16 43.59 69.50 44.18 70.96 C 42.41 69.85 40.74 68.59 38.88 67.63 Z" />
<path fill="#be585b" d=" M 127.79 70.29 C 130.77 69.32 133.78 68.45 136.83 67.68 C 137.36 67.77 138.44 67.94 138.97 68.02 C 137.08 70.33 130.55 71.18 127.79 70.29 Z" />
<path fill="#e1aaab" d=" M 61.93 71.29 C 63.22 70.66 64.44 69.92 65.72 69.28 C 66.14 70.31 66.57 71.33 67.02 72.36 C 66.94 73.95 65.35 74.38 64.13 74.93 C 63.20 73.84 62.43 72.63 61.93 71.29 Z" />
<path fill="#d7a7a8" d=" M 119.16 69.10 C 120.46 70.06 121.73 71.09 122.90 72.21 C 122.11 73.54 121.17 74.83 120.01 75.86 C 119.12 74.75 118.12 73.71 117.35 72.50 C 118.51 71.72 118.94 70.41 119.16 69.10 Z" />
<path fill="#ebc9c9" d=" M 86.92 74.13 C 88.83 74.03 90.42 72.95 92.08 72.11 C 93.84 72.73 94.83 74.59 96.14 75.85 C 94.23 75.99 93.05 77.54 91.79 78.78 L 91.08 79.05 C 90.97 76.61 88.65 75.40 86.92 74.13 Z" />
<path fill="#891d1e" d=" M 108.96 73.96 C 110.60 72.12 112.65 73.56 113.75 75.15 C 113.15 79.05 109.20 82.26 109.96 86.18 C 107.47 89.71 104.85 93.18 103.23 97.23 C 102.11 99.38 100.46 101.17 99.06 103.14 C 96.84 105.90 94.49 108.56 92.35 111.39 C 92.02 114.63 91.95 117.91 92.01 121.17 C 86.71 116.77 81.39 112.36 76.83 107.17 C 76.86 106.42 76.92 104.92 76.95 104.16 C 78.92 103.05 80.94 102.01 82.95 100.98 C 85.28 103.98 87.53 107.07 90.22 109.77 C 92.92 111.17 91.70 107.83 91.79 106.31 C 92.34 104.98 92.86 103.63 93.33 102.27 C 97.33 94.37 100.56 86.12 104.02 77.98 C 104.58 77.08 104.42 76.09 104.20 75.12 C 105.81 74.86 107.67 75.18 108.96 73.96 Z" />
<path fill="#bf5457" d=" M 83.00 74.29 C 81.08 76.11 72.93 75.28 78.04 73.57 C 79.70 73.76 81.35 74.02 83.00 74.29 Z" />
<path fill="#b34d51" d=" M 101.17 75.48 C 95.98 73.61 101.65 73.90 105.12 73.95 C 106.40 73.97 107.68 73.97 108.96 73.96 C 107.67 75.18 105.81 74.86 104.20 75.12 C 103.44 75.21 101.93 75.39 101.17 75.48 Z" />
<path fill="#921b1c" d=" M 101.17 75.48 C 101.93 75.39 103.44 75.21 104.20 75.12 C 104.42 76.09 104.58 77.08 104.02 77.98 C 100.56 86.12 97.33 94.37 93.33 102.27 C 92.63 94.45 94.05 86.40 91.79 78.78 C 93.05 77.54 94.23 75.99 96.14 75.85 C 97.82 75.88 99.51 75.80 101.17 75.48 Z" />
<path fill="#ce7174" d=" M 48.85 76.06 C 50.09 77.10 52.58 79.16 53.82 80.19 C 54.90 84.78 48.82 77.87 48.85 76.06 Z" />
<path fill="#712124" d=" M 119.35 78.32 C 122.74 79.63 129.94 76.63 129.23 82.08 C 127.01 84.44 124.72 86.72 122.61 89.16 C 120.60 91.33 118.72 93.61 116.80 95.85 C 115.06 97.61 112.29 99.16 112.75 102.03 C 110.12 104.27 107.75 106.80 105.22 109.14 C 104.86 106.43 106.13 102.98 103.79 101.12 C 102.04 101.17 100.65 102.53 99.06 103.14 C 100.46 101.17 102.11 99.38 103.23 97.23 C 105.49 94.45 107.70 91.65 109.82 88.78 C 110.47 87.39 112.02 88.72 112.97 88.93 C 113.02 89.45 113.12 90.49 113.17 91.01 C 111.32 92.96 109.73 95.39 110.03 98.21 C 111.78 96.18 112.76 93.63 113.17 91.01 C 114.65 88.93 115.84 86.61 116.17 84.04 C 117.36 82.21 118.29 80.23 119.35 78.32 Z" />
<path fill="#a22427" d=" M 56.65 83.86 C 59.00 81.44 64.48 76.08 66.74 81.13 C 66.95 81.63 67.38 82.61 67.59 83.10 C 68.10 84.86 68.73 86.58 69.62 88.18 C 69.77 87.38 70.08 85.78 70.23 84.97 C 71.95 84.79 72.60 86.44 73.49 87.55 C 76.80 91.91 79.95 96.39 82.95 100.98 C 80.94 102.01 78.92 103.05 76.95 104.16 C 75.95 102.71 74.87 101.16 74.65 104.00 C 70.13 99.64 66.59 94.35 62.14 89.90 C 60.32 87.87 58.47 85.88 56.65 83.86 Z" />
<path fill="#bc4447" d=" M 66.74 81.13 C 67.14 80.24 68.31 78.30 69.38 79.60 C 70.72 80.93 68.25 82.10 67.59 83.10 C 67.38 82.61 66.95 81.63 66.74 81.13 Z" />
<path fill="#b9484a" d=" M 91.08 79.05 L 91.79 78.78 C 94.05 86.40 92.63 94.45 93.33 102.27 C 92.86 103.63 92.34 104.98 91.79 106.31 C 91.34 105.00 91.11 103.62 91.14 102.24 C 92.21 96.81 92.42 91.17 91.33 85.73 C 91.26 84.06 91.14 80.72 91.08 79.05 Z" />
<path fill="#af5356" d=" M 129.23 82.08 C 130.20 81.35 131.12 79.86 132.44 80.88 C 129.34 83.77 126.90 88.17 122.61 89.16 C 124.72 86.72 127.01 84.44 129.23 82.08 Z" />
<path fill="#d69496" d=" M 62.23 90.98 C 60.15 89.21 54.87 86.83 56.65 83.86 C 58.47 85.88 60.32 87.87 62.14 89.90 L 62.23 90.98 Z" />
<path fill="#a14a4d" d=" M 112.97 88.93 C 113.85 87.18 114.85 85.50 116.17 84.04 C 115.84 86.61 114.65 88.93 113.17 91.01 C 113.12 90.49 113.02 89.45 112.97 88.93 Z" />
<path fill="#d07477" d=" M 91.33 85.73 C 92.42 91.17 92.21 96.81 91.14 102.24 C 90.85 96.74 91.10 91.22 91.33 85.73 Z" />
<path fill="#af5658" d=" M 62.14 89.90 C 66.59 94.35 70.13 99.64 74.65 104.00 C 74.87 101.16 75.95 102.71 76.95 104.16 C 76.92 104.92 76.86 106.42 76.83 107.17 C 71.70 103.21 66.93 98.78 62.27 94.30 C 62.69 93.21 62.48 92.08 62.23 90.98 L 62.14 89.90 Z" />
<path fill="#9e4c4f" d=" M 110.03 98.21 C 109.73 95.39 111.32 92.96 113.17 91.01 C 112.76 93.63 111.78 96.18 110.03 98.21 Z" />
<path fill="#8f4648" d=" M 112.75 102.03 C 112.29 99.16 115.06 97.61 116.80 95.85 C 116.91 96.43 117.12 97.58 117.23 98.16 C 115.91 99.64 114.43 100.98 112.75 102.03 Z" />
<path fill="#5c1d1f" d=" M 99.06 103.14 C 100.65 102.53 102.04 101.17 103.79 101.12 C 106.13 102.98 104.86 106.43 105.22 109.14 C 100.56 112.86 96.42 117.16 92.01 121.17 C 91.95 117.91 92.02 114.63 92.35 111.39 C 94.49 108.56 96.84 105.90 99.06 103.14 Z" />
<path fill="#b4b4b4" d=" M 170.27 129.24 C 170.68 129.17 171.49 129.03 171.89 128.96 C 180.54 146.02 189.85 162.74 197.94 180.10 C 198.43 181.50 197.38 182.84 195.94 182.86 C 189.24 183.68 183.16 188.21 176.30 187.82 C 173.23 181.37 168.82 175.67 165.74 169.22 C 162.82 170.92 161.28 175.19 158.73 177.74 C 157.12 179.59 155.20 184.58 152.70 180.28 C 149.03 177.67 146.74 171.95 142.22 171.10 C 139.19 177.27 136.75 183.70 133.70 189.85 C 125.67 190.63 117.92 187.88 110.04 186.81 C 109.46 183.70 111.61 181.16 112.45 178.34 C 119.04 162.24 125.14 145.93 132.11 130.01 C 139.73 135.14 145.72 142.56 152.98 147.99 C 158.85 142.12 163.80 134.80 170.27 129.24 Z" />
<path fill="#eaeaea" d=" M 5.01 130.02 C 12.00 129.96 18.99 129.92 25.99 130.02 L 26.00 130.98 C 19.00 131.03 12.00 131.01 5.00 130.99 L 5.01 130.02 Z" />
<path fill="#c5c5c5" d=" M 3.04 131.01 L 4.01 131.02 C 3.62 138.74 4.87 146.67 3.37 154.30 C 2.81 146.55 2.91 138.77 3.04 131.01 Z" />
<path fill="#b3b3b3" d=" M 4.01 131.02 L 5.00 130.99 C 12.00 131.01 19.00 131.03 26.00 130.98 C 34.42 130.40 43.33 132.60 49.84 138.14 C 50.93 139.59 52.07 141.25 52.05 143.14 C 52.05 144.82 52.05 148.18 52.06 149.86 C 52.45 154.47 47.99 157.21 45.22 160.22 C 48.37 167.92 53.35 174.98 55.97 182.83 C 49.42 184.95 42.43 185.41 35.99 187.87 C 33.07 182.52 31.33 176.64 28.72 171.14 C 22.86 168.35 22.86 172.12 22.71 175.74 C 22.25 179.48 21.99 183.23 21.93 186.99 C 15.62 186.99 9.31 187.01 3.00 186.99 C 2.99 180.99 3.06 174.99 3.00 169.00 C 3.25 164.11 2.38 159.12 3.37 154.30 C 4.87 146.67 3.62 138.74 4.01 131.02 Z" />
<path fill="#b5b5b5" d=" M 103.17 132.07 C 109.65 133.26 115.51 137.26 121.90 139.21 C 112.01 157.09 101.48 174.59 91.26 192.27 C 90.68 193.67 88.69 192.88 88.18 191.81 C 76.52 175.64 66.26 158.51 55.06 142.02 C 61.60 139.31 67.77 134.21 74.69 133.20 C 79.23 141.73 84.11 150.11 88.28 158.84 C 88.65 158.85 89.41 158.87 89.78 158.88 C 94.11 149.89 98.27 140.74 103.17 132.07 Z" />
<path fill="#e5e5e6" d=" M 6.02 133.03 C 17.01 132.76 28.11 133.04 38.92 135.15 C 43.54 136.54 48.41 139.19 50.04 144.01 C 45.08 144.07 40.11 143.71 35.16 144.11 C 34.09 145.94 33.45 147.95 33.26 150.15 C 34.16 143.47 25.70 141.02 20.83 142.95 C 20.53 143.39 19.93 144.27 19.64 144.71 C 15.14 144.05 10.59 144.00 6.05 143.96 C 6.04 141.23 6.03 135.76 6.02 133.03 Z" />
<path fill="#e7e7e8" d=" M 155.27 150.25 C 159.70 144.34 164.96 137.87 170.89 132.89 C 173.67 137.87 175.68 143.28 178.93 147.99 C 171.05 148.36 162.90 148.00 155.27 150.25 Z" />
<path fill="#e6e6e7" d=" M 133.26 134.12 C 138.41 139.38 145.06 143.24 149.29 149.35 C 142.84 148.98 136.42 149.71 129.99 150.05 C 128.35 149.92 127.23 151.20 126.03 152.08 C 127.88 145.93 130.77 140.07 133.26 134.12 Z" />
<path fill="#e7e7e8" d=" M 104.28 135.15 C 108.89 136.24 113.15 139.08 117.85 140.24 C 116.46 142.35 116.05 145.79 113.96 146.97 C 109.41 147.18 104.81 146.56 100.29 147.21 C 98.92 149.20 97.48 151.12 95.94 152.97 C 98.17 146.78 101.63 141.15 104.28 135.15 Z" />
<path fill="#e8e8e9" d=" M 72.80 136.16 C 75.95 139.95 77.91 144.68 79.85 149.19 C 75.37 146.65 70.10 146.84 65.10 147.01 C 64.98 148.37 64.91 149.74 64.88 151.11 C 61.93 149.09 60.56 145.31 59.06 142.29 C 63.91 140.91 68.23 138.23 72.80 136.16 Z" />
<path fill="#b5b5b5" d=" M 20.83 142.95 C 25.70 141.02 34.16 143.47 33.26 150.15 C 30.72 154.23 25.55 154.50 21.21 153.88 C 19.80 153.04 20.20 151.44 20.26 150.08 C 21.52 147.66 21.71 145.29 20.83 142.95 Z" />
<path fill="#c9c9ca" d=" M 19.64 144.71 C 19.93 144.27 20.53 143.39 20.83 142.95 C 21.71 145.29 21.52 147.66 20.26 150.08 C 19.85 148.31 19.67 146.51 19.64 144.71 Z" />
<path fill="#cdcdcd" d=" M 52.05 143.14 C 53.85 143.96 53.85 149.03 52.06 149.86 C 52.05 148.18 52.05 144.82 52.05 143.14 Z" />
<path fill="#ececec" d=" M 6.05 143.96 C 10.59 144.00 15.14 144.05 19.64 144.71 C 19.67 146.51 19.85 148.31 20.26 150.08 C 20.20 151.44 19.80 153.04 21.21 153.88 C 25.55 154.50 30.72 154.23 33.26 150.15 C 33.45 147.95 34.09 145.94 35.16 144.11 C 40.11 143.71 45.08 144.07 50.04 144.01 C 50.80 149.31 47.98 155.80 43.02 157.81 C 30.78 156.15 18.37 157.34 6.06 157.00 C 6.04 156.25 6.01 154.75 5.99 154.00 C 5.97 150.64 5.89 147.31 6.05 143.96 Z" />

<path fill="#8b1417" d=" M 23.01 144.99 C 26.04 144.45 28.83 146.04 30.85 148.16 C 29.98 151.51 25.92 151.38 23.01 151.01 C 23.01 149.51 23.01 146.50 23.01 144.99 Z" />

<path fill="#eeeeee" d=" M 65.10 147.01 C 70.10 146.84 75.37 146.65 79.85 149.19 C 83.16 153.14 85.31 158.15 86.99 162.98 C 83.41 164.57 74.64 159.91 73.74 165.07 C 69.97 161.18 67.29 155.88 64.88 151.11 C 64.91 149.74 64.98 148.37 65.10 147.01 Z" />
<path fill="#eeeeee" d=" M 100.29 147.21 C 104.81 146.56 109.41 147.18 113.96 146.97 C 111.02 153.52 106.58 159.28 103.77 165.89 L 103.28 165.68 C 99.76 162.69 94.29 162.04 90.19 164.26 C 91.73 160.35 93.29 156.28 95.94 152.97 C 97.48 151.12 98.92 149.20 100.29 147.21 Z" />
<path fill="#ececed" d=" M 155.27 150.25 C 162.90 148.00 171.05 148.36 178.93 147.99 C 180.67 150.77 182.07 153.80 183.02 156.93 C 163.03 158.23 142.95 157.63 123.02 159.92 C 123.56 157.17 124.50 154.45 126.03 152.08 C 127.23 151.20 128.35 149.92 129.99 150.05 C 136.42 149.71 142.84 148.98 149.29 149.35 C 151.30 150.43 153.28 153.59 155.27 150.25 Z" />
<path fill="#cfcfd0" d=" M 5.04 154.02 L 5.99 154.00 C 6.01 154.75 6.04 156.25 6.06 157.00 C 5.84 161.08 6.22 165.26 5.36 169.29 C 4.99 164.21 4.83 159.11 5.04 154.02 Z" />
<path fill="#f1f1f2" d=" M 6.06 157.00 C 18.37 157.34 30.78 156.15 43.02 157.81 C 41.21 161.87 45.36 165.08 46.03 168.93 C 40.99 168.08 35.71 167.30 30.67 168.53 C 27.25 168.98 22.18 166.17 19.77 169.85 C 15.23 170.03 10.69 169.77 6.17 170.11 C 5.94 172.65 5.48 177.71 5.25 180.25 C 5.15 176.60 4.58 172.90 5.36 169.29 C 6.22 165.26 5.84 161.08 6.06 157.00 Z" />
<path fill="#f1f1f2" d=" M 123.02 159.92 C 142.95 157.63 163.03 158.23 183.02 156.93 C 185.87 159.50 186.84 164.48 188.91 168.04 C 182.68 168.11 176.41 167.63 170.19 168.15 C 170.08 168.63 169.85 169.59 169.74 170.07 C 167.24 169.16 168.13 164.57 165.13 165.04 C 161.64 169.61 158.22 174.23 154.82 178.86 C 152.09 177.41 149.97 174.51 147.94 172.06 C 146.08 170.09 144.67 166.02 141.30 167.11 C 140.97 167.57 140.30 168.49 139.96 168.95 C 133.02 169.86 126.03 170.14 119.03 170.03 C 119.90 166.63 121.09 162.40 123.02 159.92 Z" />
<path fill="#f5f5f6" d=" M 73.74 165.07 C 74.64 159.91 83.41 164.57 86.99 162.98 C 88.53 163.31 87.95 166.10 90.19 164.26 C 94.29 162.04 99.76 162.69 103.28 165.68 C 99.50 173.67 94.92 181.55 89.86 188.85 L 89.15 188.87 C 84.20 180.87 78.23 173.27 73.74 165.07 Z" />
<path fill="#f6f6f6" d=" M 30.67 168.53 C 35.71 167.30 40.99 168.08 46.03 168.93 C 48.78 171.33 49.55 176.04 51.66 179.30 C 53.50 182.02 46.97 182.82 46.35 182.52 C 43.26 183.09 40.25 183.98 37.20 184.72 C 34.89 179.38 32.71 173.97 30.67 168.53 Z" />
<path fill="#f6f6f7" d=" M 170.19 168.15 C 176.41 167.63 182.68 168.11 188.91 168.04 C 191.20 171.82 192.91 175.93 194.90 179.88 C 189.58 182.11 183.98 184.47 178.18 184.90 C 174.89 180.31 172.17 175.16 169.74 170.07 C 169.85 169.59 170.08 168.63 170.19 168.15 Z" />
<path fill="#e1e1e1" d=" M 2.05 169.02 L 3.00 169.00 C 3.06 174.99 2.99 180.99 3.00 186.99 L 2.03 187.00 C 2.01 181.00 1.83 175.01 2.05 169.02 Z" />
<path fill="#f6f6f7" d=" M 119.03 170.03 C 126.03 170.14 133.02 169.86 139.96 168.95 C 137.62 175.37 134.53 181.59 131.73 187.86 C 125.46 187.32 119.26 185.42 112.94 184.86 C 114.16 179.76 117.06 175.22 118.23 170.10 L 119.03 170.03 Z" />
<path fill="#f9f9f9" d=" M 6.17 170.11 C 10.69 169.77 15.23 170.03 19.77 169.85 C 20.09 174.87 20.16 179.94 19.93 184.97 C 16.20 184.97 8.73 184.97 5.00 184.97 C 4.96 183.39 5.05 181.81 5.25 180.25 C 5.48 177.71 5.94 172.65 6.17 170.11 Z" />
<path fill="#d5d5d5" d=" M 21.93 186.99 C 21.99 183.23 22.25 179.48 22.71 175.74 C 22.77 178.56 22.91 184.19 22.98 187.00 L 21.93 186.99 Z" />
<path fill="#d6d6d6" d=" M 3.00 186.99 C 9.31 187.01 15.62 186.99 21.93 186.99 L 22.02 187.97 C 15.68 187.98 9.35 188.17 3.02 187.95 L 3.00 186.99 Z" />
</svg>
