<?xml version="1.0" encoding="UTF-8" ?>
<!DOCTYPE svg PUBLIC "-//W3C//DTD SVG 1.1//EN" "http://www.w3.org/Graphics/SVG/1.1/DTD/svg11.dtd">
<svg viewBox="0 0 400 400" version="1.1" xmlns="http://www.w3.org/2000/svg">
<path fill="#aa3336" d=" M 79.23 43.03 C 119.78 32.22 160.29 21.30 200.84 10.49 C 190.01 51.03 179.16 91.56 168.27 132.08 C 138.56 102.43 108.85 72.77 79.23 43.03 Z" />
<path fill="#aa3336" d=" M 171.31 132.94 C 182.15 92.40 193.02 51.86 203.88 11.33 C 233.57 40.99 263.27 70.64 292.90 100.35 C 252.38 111.25 211.84 122.07 171.31 132.94 Z" />
<path fill="#aa3336" d=" M 76.96 45.25 C 106.69 74.92 136.38 104.64 166.08 134.34 C 125.53 145.24 84.97 156.10 44.40 166.93 C 55.21 126.36 66.12 85.81 76.96 45.25 Z" />
<path fill="#aa3336" d=" M 172.13 136.00 C 212.64 125.12 253.17 114.32 293.67 103.41 C 282.83 143.95 271.97 184.47 261.11 225.00 C 231.44 195.35 201.77 165.69 172.13 136.00 Z" />
<path fill="#aa3336" d=" M 296.76 104.18 C 326.37 133.89 356.06 163.53 385.74 193.17 C 345.22 203.98 304.71 214.83 264.22 225.72 C 275.05 185.20 285.93 144.70 296.76 104.18 Z" />
<path fill="#aa3336" d=" M 45.27 169.97 C 85.80 159.12 126.32 148.26 166.84 137.41 C 155.98 177.92 145.12 218.44 134.29 258.96 C 104.52 229.40 74.89 199.68 45.27 169.97 Z" />
<path fill="#aa3336" d=" M 10.39 293.79 C 21.32 253.29 31.97 212.71 43.05 172.26 C 72.70 201.92 102.38 231.56 132.03 261.23 C 91.48 272.07 50.94 282.96 10.39 293.79 Z" />
<path fill="#aa3336" d=" M 265.07 228.81 C 305.57 217.95 346.08 207.13 386.56 196.25 C 375.66 236.74 364.79 277.26 354.02 317.79 C 324.36 288.14 294.67 258.52 265.07 228.81 Z" />
<path fill="#aa3336" d=" M 138.09 262.83 C 178.60 251.95 219.11 241.12 259.63 230.27 C 248.76 270.80 237.85 311.32 227.08 351.88 C 197.47 322.14 167.76 292.51 138.09 262.83 Z" />
<path fill="#aa3336" d=" M 262.71 231.06 C 292.47 260.68 322.06 290.44 351.80 320.08 C 311.24 330.91 270.68 341.76 230.14 352.67 C 241.01 312.13 251.87 271.60 262.71 231.06 Z" />
<path fill="#aa3336" d=" M 11.35 296.66 C 51.91 286.18 92.32 275.02 132.83 264.29 C 121.97 304.82 111.11 345.35 100.26 385.89 C 72.76 358.33 45.21 330.82 17.69 303.28 C 15.54 301.10 13.28 299.04 11.35 296.66 Z" />
<path fill="#aa3336" d=" M 135.90 265.11 C 165.57 294.76 195.21 324.45 224.89 354.10 C 184.35 364.87 143.84 375.79 103.31 386.63 C 114.23 346.14 125.01 305.61 135.90 265.11 Z" />
</svg>
